<?xml version="1.0" encoding="utf-8"?>
<!-- Generator: Adobe Illustrator 27.5.0, SVG Export Plug-In . SVG Version: 6.00 Build 0)  -->
<svg version="1.1" id="PACE" xmlns="http://www.w3.org/2000/svg" xmlns:xlink="http://www.w3.org/1999/xlink" x="0px" y="0px"
	 viewBox="0 0 397.1 163.8" style="enable-background:new 0 0 397.1 163.8;" xml:space="preserve">
<style type="text/css">
	.st0{fill:#1A171B;}
	.st1{fill:#FFFFFF;}
	.st2{fill:#2A92BC;}
	.st3{fill:#E85C55;}
	.st4{fill:#FABF03;}
	.st5{fill:#28A386;}
</style>
<g>
	<rect y="117" class="st0" width="182.8" height="46.8"/>
	<g>
		<path class="st1" d="M29.1,152.5c-6.1,0-10.3-4.5-10.3-12c0-7.6,4.2-12.1,10.4-12.1c6.1,0,10.3,4.5,10.3,12
			C39.4,148,35.2,152.5,29.1,152.5z M29,133c-3.3,0-5.4,2.6-5.4,7.4c0,4.7,2.3,7.5,5.6,7.5s5.5-2.6,5.5-7.4
			C34.6,135.7,32.3,133,29,133z"/>
		<path class="st1" d="M63.1,152.1l-8.6-12.8c-0.6-0.9-1.3-2-1.6-2.6c0,0.9,0.1,3.8,0.1,5.1v10.3h-4.6v-23.4h4.5l8.3,12.4
			c0.6,0.9,1.3,2,1.6,2.6c0-0.9-0.1-3.8-0.1-5.1v-9.9h4.6v23.4H63.1z"/>
		<path class="st1" d="M77.4,152.1v-23.4h4.7v18.8h11.7v4.6H77.4z"/>
		<path class="st1" d="M102.7,152.1v-23.4h4.7v23.4H102.7z"/>
		<path class="st1" d="M132.7,152.1l-8.6-12.8c-0.6-0.9-1.3-2-1.6-2.6c0,0.9,0.1,3.8,0.1,5.1v10.3h-4.6v-23.4h4.5l8.3,12.4
			c0.6,0.9,1.3,2,1.6,2.6c0-0.9-0.1-3.8-0.1-5.1v-9.9h4.6v23.4H132.7z"/>
		<path class="st1" d="M147,152.1v-23.4h16.2v4.6h-11.6v4h6.7v4.5h-6.7v5.7h12.1v4.6H147z"/>
	</g>
</g>
<g>
	<path class="st0" d="M388.9,16.3c-4.6,0-8.1-3.5-8.1-8.1s3.5-8.1,8.1-8.1c4.6,0,8.1,3.5,8.1,8.1S393.6,16.3,388.9,16.3z M388.9,1.3
		c-3.9,0-6.8,2.9-6.8,6.8s2.9,6.8,6.8,6.8c3.9,0,6.8-2.9,6.8-6.8S392.8,1.3,388.9,1.3z M390.8,8.8l1.8,3.6h-1.8L389.1,9h-1.7v3.4
		h-1.5V3.5h3.9c1.6,0,2.9,0.8,2.9,2.7C392.7,7.6,391.9,8.5,390.8,8.8z M389.7,5h-2.3v2.5h2.3c0.8,0,1.4-0.4,1.4-1.3
		C391.1,5.4,390.5,5,389.7,5z"/>
</g>
<g>
	<path class="st2" d="M0,19.8v85.6h85.6V19.8H0z"/>
	<g>
		<path class="st1" d="M45.4,44.9c4.8,0,8.8,0.3,11.9,3.2c2.7,2.5,3.3,5.7,3.3,8.4c0,2.8-0.5,5.8-2.9,8.4c-3.2,3.5-7.8,3.7-12.9,3.7
			h-9v11.7h-9.3V44.9H45.4z M35.7,61.7h8.4c1.8,0,4.2-0.3,5.5-1.5c0.8-0.7,1.3-2,1.3-3.6c0-1.8-0.7-2.9-1.7-3.6
			c-0.4-0.3-1.6-1-4.5-1h-8.9V61.7z"/>
	</g>
</g>
<g>
	<path class="st3" d="M97.2,19.8v85.6h85.6V19.8H97.2z"/>
	<g>
		<path class="st1" d="M129.3,80.3h-9.7l15.9-35.3h9.1l15.9,35.3h-9.7l-3.1-7.2h-15.3L129.3,80.3z M145.4,67L140,53.8L134.6,67
			H145.4z"/>
	</g>
</g>
<g>
	<path class="st4" d="M194.5,19.8v85.6H280V19.8H194.5z"/>
	<g>
		<path class="st1" d="M256.8,67.8c-0.3,5.5-3.2,9-5.6,10.7c-3.5,2.4-8.3,2.8-12.8,2.8c-5.3,0-11.1-0.5-15.7-4.9
			c-4.2-4.1-5.1-9.5-5.1-13.6c0-4.4,1-9.5,4.9-13.5c4.6-4.6,10.7-5.3,15.1-5.3c2.5,0,9.6,0.2,13.8,3.1c1.9,1.3,4.9,4.2,5.1,9.7h-9.7
			c-0.1-1.8-0.8-3.2-2.6-4.3c-1.9-1.2-4.1-1.4-6-1.4c-2.6,0-5.3,0.3-7.6,2.8c-1.4,1.5-2.9,4.2-2.9,8.9c0,4.6,1.5,7.4,3,8.9
			c2.3,2.3,5.1,2.6,7.6,2.6c1.8,0,4.4-0.1,6.2-1.4c1.2-0.8,2.5-2.5,2.6-5H256.8z"/>
	</g>
</g>
<g>
	<path class="st5" d="M291.7,19.8v85.6h85.6V19.8H291.7z"/>
	<g>
		<path class="st1" d="M346.8,58.9v6.7h-19.4v7.6h23.5v7.1h-32.8V44.9h32.2v7.1h-22.9v7H346.8z"/>
	</g>
</g>
</svg>
