<?xml version="1.0" encoding="utf-8"?>
<!-- Generator: Adobe Illustrator 28.3.0, SVG Export Plug-In . SVG Version: 6.00 Build 0)  -->
<svg version="1.1" id="Laag_1" xmlns="http://www.w3.org/2000/svg" xmlns:xlink="http://www.w3.org/1999/xlink" x="0px" y="0px"
	 viewBox="0 0 739.7 154.8" style="enable-background:new 0 0 739.7 154.8;" xml:space="preserve">
<style type="text/css">
	.st0{fill:#EB5B56;}
	.st1{fill:#002043;}
</style>
<path class="st0" d="M179.1,74.7c3.5-0.6,5.7-4,5-7.4C175.5,28.4,152-2.9,129.4,0.2c-6.8,0.9-16.3,7.2-19.6,9.7
	C82.3,30.1,30.5,62.6,17.1,70.7c-10.7,7.7-19.5,18-16.4,35.5c3.1,17.5,14.9,24.1,27.6,27.7c15.4,3,55.9,8.4,88.7,18
	c4,1.3,15,3.9,21.7,2.4c23.6-5.1,41.6-36.7,34.3-78.5L179.1,74.7z"/>
<g>
	<g>
		<path class="st1" d="M164.2,84.1c-0.2-1.7-0.4-3.3-0.6-4.7c-0.1-0.8-0.3-1.6-0.4-2.3l-1-5.5l-1.3-5.5c-0.2-0.5-0.3-1.1-0.5-1.6
			c-0.4-1.5-0.9-3.2-1.6-5.1c-1.1-3.2-2.3-6.2-3.7-9.2c-2-4.4-4.4-8.4-7.4-12.2c-3.5-4.6-7.3-7.8-11.2-9.7c-3.6-1.8-7.6-2.3-11-1.3
			c-0.2,0.1-0.5,0.1-0.7,0.2c-0.5,0.1-1,0.3-1.4,0.5l-1.8,1c-1.1,0.7-2,1.5-2.9,2.3l-0.7,0.7c-0.5,0.5-0.9,1-1.4,1.5l-1.5,2.2
			c-0.8,1.3-1.4,2.4-2,3.6l-0.2,0.4c-0.2,0.5-0.4,0.9-0.6,1.4c-0.4,0.8-0.8,1.7-1,2.7c-1.3,3.6-2.2,7.3-2.9,12.1
			c-0.2,1.7-0.4,3.5-0.6,5.2c-3.4,0.3-6.7,0.7-8.9,0.9c-4.9,0.6-4.9,1.4-4.8,1.8l0.1,1.2l0.5,0c0.1,0,3.1,0,13-0.7
			c-0.1,3.5,0,6.9,0.3,10.5c0.2,1.8,0.4,3.4,0.6,4.8l0.1,1c0.3,1.5,0.6,2.8,0.8,3.7c0.5,2.1,0.8,2.6,1.4,2.5
			c0.4-0.1,0.8-0.2,0.4-3.9c-0.6-4.8-1.1-11.3-0.9-18.8c7.1-0.6,15.6-1.4,25.4-2.4c0.9-0.1,1.8-0.2,2.6-0.3c1.9-0.2,3.6-0.4,4.9-0.2
			c2,0.3,3.4,1.3,4.5,2.1c2.1,1.8,3.1,3.4,4.1,5.1c0.8,1.5,1.6,3.3,2.4,6.2c0.7,2.8,1.5,6.7,1.1,12.7c-0.4,7.1-3.6,10.3-4.9,11.3
			c-1.9,1.5-3.6,2.1-5.1,2.5c-0.3,0.1-0.6,0.2-0.9,0.3c-3.3,1-5.2,1.5-11.2,2.9c-10.1,2.4-14.9,4.2-16,5.1l-1.1,0.5l1.4,3.4l0.3,0.6
			c1,2.1,2.5,5.3,5.5,9.6c1.6,2.3,3.7,4.9,6.7,7.6c0.8,0.7,1.5,1.3,2.2,1.8c-2.4-0.5-5-0.9-7.7-1.4c-2.8-0.5-5.7-1-8.8-1.6
			c-5.1-1-8.9-1.7-13.2-2.6c-4.5-0.9-9.7-1.9-18-3.5l-4.1-0.8c-11.9-2.3-11.9-2.3-16.6-3l-0.1,0c-5.3-0.8-8.6-1.5-15.3-3
			c-4.2-1-10.4-2-13.7-2.5c-4.3-0.6-4.4,0.2-4.5,0.5l-0.2,1.2l0.4,0.1c0.3,0.1,6.9,2.1,34.9,6.6c12.4,2,14.9,2.5,19,3.4
			c3,0.7,6.6,1.5,15.2,3.1c9.6,1.8,14,2.6,16.9,3.1c3.5,0.6,5,0.9,10.5,2.1c8.2,1.8,11.7,2.1,13.1,2c0.8,0.2,1.5,0.3,2.2,0.3
			c0.4,0,0.7,0,1,0c1.1,0,2.2-0.1,3.2-0.4l2.1-0.6c0.5-0.2,0.9-0.4,1.3-0.7c0.2-0.1,0.4-0.2,0.7-0.4c2.7-1.6,5-3.9,6.6-6.5
			c0.7-0.9,1.2-1.9,1.7-2.9c0.2-0.5,0.5-1,0.8-1.5c0.2-0.5,0.4-1.1,0.7-1.6c0.4-1,0.9-2.1,1.2-3.2l0.8-2.5l0.6-2.6
			c0.3-1.3,0.5-2.6,0.7-3.9c0.1-0.5,0.2-1,0.3-1.6C165.5,97,164.7,89.5,164.2,84.1z M162.3,99.3l-0.2,3.5l-0.3,3
			c-0.1,1.8-0.4,3.6-0.9,6l-0.1,0.5c-1.2,5.8-2.7,9.9-5.1,13.7c-1.4,2-2.8,4-5,5.4c-1.8,1.2-4.7,2.6-8.2,2.3
			c-3.8-0.4-8.2-2.8-11.8-6.5c-3.8-3.6-6.6-8-8.4-11.1c-0.5-0.8-0.9-1.6-1.3-2.3c-0.9-1.5-1.6-2.7-2.1-3.5c0.2,0,0.3-0.1,0.5-0.1
			c3.1-0.7,7.4-1.8,11.9-3c1.1-0.3,2.2-0.6,3.4-0.9c3.9-1,8.2-2.1,12.8-3.6c3-1,5.4-2.8,7.2-5.2c1.5-2.2,2.5-4.6,3-7.6
			c0.5-2.7,0.6-5.7,0.4-9.2c-0.4-4.5-1.4-8.3-3.2-12.2c-2.1-4.2-4.8-7.4-7.7-8.9c-2.6-1.4-5-1.5-6.7-1.3c-3,0.3-4.3,0.4-7.4,0.8
			c-6.2,0.7-10.1,1-18.1,1.3c-1.3,0.1-2.8,0.1-4.5,0.3c0.3-3.4,0.8-8.4,2.2-13.6c1.6-5.8,3.9-10.2,6.9-13.5
			c3.1-3.6,7.7-5.2,12.2-4.3c3.7,0.8,7.1,3,10.8,6.8c3.3,3.4,6.2,7.6,8.9,12.8c3.1,6,5.6,12.6,7.5,20.2c2,8.1,2.7,14.4,3.1,19.4
			C162.4,92.5,162.4,96,162.3,99.3z"/>
		<g>
			<g>
				<path class="st1" d="M151.7,82.2l0-0.5c0-1-0.1-1.7-0.2-2.4l-0.1-0.6c-0.1-0.8-0.2-1.6-0.5-3c-0.3-1.3-0.8-3-2.4-5.3
					c-1.6-2.3-3.6-3.6-5.5-3.5c-1.8,0.1-2.7,1-3.4,1.7c-0.5,0.6-0.9,1.2-1.2,1.9c-0.3,0.6-0.7,1.4-1,2.9c-0.4,1.6-0.5,3.1-0.2,4.6
					c0.2,1.3,0.5,2,0.8,2.3c0.4,0.6,0.8,0.6,1,0.6c0.4-0.1,0.6-0.6,0.6-1.2c0-0.3,0-0.7,0-1c0-1.1-0.1-2.4,0.1-3.8
					c0.1-1,0.3-2,0.6-2.9c0.4-1.1,1-2,1.6-2.4c1.6-1.1,3.1,0.2,4.1,1.4c1.5,1.9,2.5,4.2,3.1,7.3c0.6,3.3,0.4,5.1,0.2,6.2l-0.1,0.5
					c-0.2,1-0.3,1.5-0.6,2.5c-0.4,1.1-0.9,1.8-1.6,2.1c-0.8,0.4-1.7,0.2-2.5-0.5c-1.3-1-2.8-3.1-3.5-4.7c-0.4-0.9-1.1-1.8-1.9-1.6
					l-1,0.3l0,0.3c0,0,0,0.2,0.1,0.8c0.1,0.6,0.4,1.5,1,2.7l0.1,0.1c0.6,1.2,1.5,2.9,3.7,4.4c0.7,0.5,1.8,0.9,2.9,0.9
					c0.7,0,1.4-0.1,2-0.5c1.5-0.8,2.6-2.3,3.2-4.5C151.8,85.1,151.7,83.4,151.7,82.2z"/>
			</g>
		</g>
	</g>
</g>
<path class="st1" d="M321.1,127.4h11.6V40.7h-11.6V127.4z M372.2,114.6c-0.7,2-1,3.7-1,5.8c0,0.7-0.1,1.6-1,1.6c-0.8,0-1-0.8-1-1.6
	c0-2-0.2-3.7-1-5.8L352,65.7h-12.5l22.2,61.7h17.3l22.2-61.7h-12.5L372.2,114.6z M294.6,54.2h12.5V40.7h-12.5V54.2z M250.9,77.4
	c-17.2-2.3-19.5-7.5-19.5-12.6c0-5.5,4.1-12.5,18.3-12.5c13.9,0,18.9,8.9,18.9,16.4h11.7c-0.4-13.7-9.5-27-30.4-27
	c-19.6,0-31,10.6-31,23.8c0,14.5,11,21.3,30.7,23.7c16.6,2,21.3,6.1,21.3,13.6c0,6.4-4.6,14.9-21.2,14.9c-17,0-21.4-11.8-21.7-20.2
	h-12c0,15.7,10.2,30.8,33.7,30.8c22.3,0,33.7-12.5,33.7-26.3C283.5,84.3,269.6,79.9,250.9,77.4z M295.1,127.4h11.6V65.7h-11.6V127.4
	z M432.8,64.8C415.1,64.8,403,78,403,96.6c0,17.5,10.6,31.8,30,31.8c15.8,0,24.2-10.4,26.7-21.8h-11.9c-2.2,7.1-6.3,11.2-14.6,11.2
	c-11.2,0-17.9-7.9-18.8-17.8h46c0.2-1.3,0.4-2.5,0.4-4.2C460.8,73.8,446.5,64.8,432.8,64.8z M415.1,90.3c1.7-8.3,6.7-15.4,18.3-15.4
	c9.4,0,15.2,6.4,15.9,15.4H415.1z M538.2,91c-13.4-1.4-15.7-4.1-15.7-8.1c0-4.1,3.6-8.1,13.4-8.1c10.8,0,13.5,6.4,13.9,10.4h11.3
	c-0.8-11.6-9.3-20.5-24.8-20.5c-16.9,0-25.3,9.8-25.3,19c0,8.1,5.1,15.4,21.2,17.1c14.1,1.4,19.3,3.1,19.3,8.7c0,4-3.3,8.7-15.1,8.7
	c-12,0-15.9-7.6-16-12.3H509c0.6,13.6,10.1,22.4,26.9,22.4c16.9,0,27.1-8.1,27.1-20.6C563,97.6,554.8,92.8,538.2,91z M482.3,79
	c-0.2,0.6-0.6,1.2-1.2,1.1c-1-0.2-0.6-1.2-0.4-2.2c1.1-3.6,1.3-5.5,1.3-8.1v-4.1h-11.6v61.7H482V97.9c0-16.1,5.2-22.5,23.1-21.3
	V64.8C489.6,64.8,486.1,69.1,482.3,79z M730.3,35.9c-5.4,0-9.4,3.9-9.4,9.4c0,5.4,3.9,9.3,9.4,9.3c5.4,0,9.4-3.9,9.4-9.3
	C739.7,39.8,735.7,35.9,730.3,35.9z M730.4,52.3c-4.3,0-7.1-2.9-7.1-7.1c0-4.2,2.8-7.1,7.1-7.1c4.3,0,7,2.9,7,7.1
	C737.4,49.5,734.6,52.3,730.4,52.3z M694.9,64.8c-17.7,0-29.8,13.2-29.8,31.8c0,17.5,10.6,31.8,30,31.8c15.8,0,24.2-10.4,26.7-21.8
	h-11.9c-2.2,7.1-6.3,11.2-14.6,11.2c-11.2,0-17.9-7.9-18.8-17.8h46c0.2-1.3,0.4-2.5,0.4-4.2C722.9,73.8,708.6,64.8,694.9,64.8z
	 M677.2,90.3c1.7-8.3,6.7-15.4,18.3-15.4c9.4,0,15.2,6.4,15.9,15.4H677.2z M643.9,70.5c0,2.3,0.2,4.1,1.2,6.6c0.4,1,1.1,2.2,0,2.5
	c-1,0.4-1.3-0.8-1.4-1.2c-2.8-8.3-10.8-13.7-20.7-13.7c-16,0-27.2,13.5-27.2,31.8c0,18.3,11.2,31.8,27.2,31.8
	c9.6,0,17.8-5.3,20.7-14c0.1-0.4,0.5-1.3,1.2-1.1c1.2,0.4,0.6,1.4,0.2,2.4c-1,2.6-1.2,4.3-1.2,6.5v5.2h11.6V40.7h-11.6V70.5z
	 M625.4,117.8c-12,0-18.1-9.8-18.1-21.2c0-11.4,6-21.2,18.1-21.2c11,0,18.5,9.8,18.5,21.2C643.9,108,636.3,117.8,625.4,117.8z
	 M733.8,43.2c0-1.8-1.1-3-3.6-3h-2.7v9.4h2.1v-3.4h0.6l2,3.4h2.5l-2.4-3.8C733.3,45.4,733.8,44.5,733.8,43.2z M730.5,44.6h-1V42h0.8
	c0.9,0,1.3,0.3,1.3,1.2C731.6,44,731.3,44.6,730.5,44.6z M573.1,54.2h12.5V40.7h-12.5V54.2z M573.6,127.4h11.6V65.7h-11.6V127.4z"/>
</svg>
